<svg xmlns="http://www.w3.org/2000/svg" viewBox="70 68 1115 1117">
    <style>
        path { stroke: black; stroke-width: 15; }
    </style>

    <path
        fill="none"
        d="M321 76h610a211 211 0 0 1 96 18l20 10 2 1q48 26 80 69l1 2q9 11 15 23l2 2 6 13 3 6 9 24c11 28 12 58 12 87v611c0 17 0 17-2 23v6l-4 21-2 7-2 6-1 3-5 14-3 7-8 17-1 3q-11 19-25 37l-2 2-17 20-3 2-22 19-3 2q-17 12-35 21l-3 2-17 7-3 1a214 214 0 0 1-52 14l-38 1v-3q-2-37-27-64l-1-2-20-22q-36-35-53-82-8-22-24-39l-2-1q-9-10-20-18l-13-10-3-2q-17-12-24-31l-1-4q-6-22-4-45v-3a158 158 0 0 1 5-46l12-36 1-2q5-12 15-18 13-5 25-1l36 20 2 2c25 13 25 13 52 15q8-3 11-12 3-7 3-16 0-11 6-21l5-2q7-2 9-8l1-8 1-6 8-5 4-4 1-10-1-2-1-9v-7l16-6q9-1 14-9l1-9-6-9-3-5-2-3-8-16-1-3q-7-17 0-35l5-9q5-8 5-16v-11q0-47-20-91l-2-7h-2l-1-2-9-15-5-10-6-13-2-3a294 294 0 0 0-47-66l-16-15-3-3c-39-34-89-57-136-78l-14-6-30-14-8-3-54-23-2-1-25-9-2-1q-7-3-16-2-1 7 5 12l5 5 3 3 11 10q13 12 23 25v2h-2l-44-11-8-2-9-2-4-2-34-9a578 578 0 0 1-131-51l-4-2-10-1-1 1c0 12 10 21 18 30l1 2 18 17 3 2q40 33 88 53 14 6 24 14l2 1 7 9v6c-16 10-51 2-68-1l-10-2-7-2q-28-5-55-15l-4-1-19-7-4-2q-47-19-90-49l-2-2-3-2q-6-2-13-2-2 2-1 5c0 25 23 52 38 70l3 3 19 21 2 2 11 11q12 11 20 25 17 29 40 53l2 2 17 15 10 9-2 3c-10 12-10 12-15 26q-1 7-6 13a192 192 0 0 0-25 50l-7 20-1 2c-6 19-6 19-9 40l-3 9-1 6-1 9v8l-2 10v26q0 42 9 83v4l7 24 2 7 1 5 1 2 3 9c4 9 0 21-1 31q-7 49-6 98v6a438 438 0 0 0 6 76q5 48 20 95l1 3 1 3q2 10 0 22v5l-4 57h-37c-42 0-42 0-57-4l-9-2q-15-2-27-8l-8-3q-34-12-63-37l-2-1q-15-13-29-29l-2-2q-16-21-29-44l-2-4q-6-9-9-20l-1-4-12-40-1-3v-3q-2-13-2-27V356c-1-77-1-77 9-105l1-2 6-18 1-3q9-23 23-43l1-2a232 232 0 0 1 41-46q21-19 45-32l2-1q25-14 53-21l2-1q29-7 59-6" />
    <path fill="white"
        d="m330 335 5 3 3 2 6 4q22 14 46 26l7 4 30 13 3 1 17 4 6-4c20-7 49 3 69 8l3 1c44 11 88 35 124 62l16 11 2 1 2 2 4 3 4 1h3l2 1q28 4 48 23l2 2 18 22q4 6 3 13-1 8 4 13l4 4 2 2 4 3 22 22 3 4q29 33 39 75l1 3q3 7 2 16h2q0-15-3-28l-1-3-5-15-1-2q-22-50-66-84-3-3-2-8c3-22 16-35 32-49l3-2 3-5q-2-8-6-14l-2-3-16-25-1-2-29-32 4-1 2 1c22 8 50 8 73 1l8-1 5 4 2 3 3 2 4 4 2 1 4 4q16 13 27 31l2 3 2 3c-2-18-22-37-36-48l-5-5-19-17-2-2c-13-12-31-30-32-49v-6l4-1 7 5 1 1 8 7q9 8 21 14l10 4 2 1 20 13 2 1q24 19 44 42l7 7q17 19 24 45l2 5v3l2 6q6 16 7 33v5c3 12 4 31-2 42l-6 8q-7 14-3 29c3 15 11 34 22 45q1 5-2 9l-8 5-4 1-11 3-5 3v11q-1 7 2 12v5q-4 5-10 7l-4-1c-8-4-21-1-30 2l-3 3h3q9-2 20-2l2-1 5 1q5 5 3 12-1 5-6 8-7 3-15-1 2 4 6 7l-1 2q-5 8-5 17 0 14-7 24-9 5-19 2l-12-4-2-1q-27-13-52-28l-2-1-35-23-3-2-34-24-3-2c-12-11-15-28-17-43l-1-4-2-15c-1-11-3-25-12-33l-10-5q-15-6-27-16l-2-2a65 65 0 0 1-20-43c-1-19-1-19 5-26q5-5 12-4 27 2 47 23 13 16 20 37 11 27 36 42 20 13 33 32-3-10-10-18l-1-2q-10-10-22-18a77 77 0 0 1-33-40q-10-35-42-53-9-6-22-7c-13 0-19-3-29-11q-10-9-21-14l-2-1q-20-11-42-20l-3-1-16-6h-3q-16-4-34-4h-3q-14-1-23 7l-6 9-15-9-27-14q-32-13-56-37l-3-3-19-22-1-2-23-32z" />
    <path fill="white"
        d="M511 870h8l4 1q22-1 42 9l4 2q26 13 46 34l17 16c23 21 54 33 82 46 51 24 81 48 103 101 0-19-12-38-22-53l-1-4c-3-15-10-32-20-43l-4-10-6-13-1-3-12-23 1-2 2 2 20 17 19 15 2 2 6 5 2 2q17 17 23 41 9 24 24 45l1 2 18 21 3 4 10 10 3 4 5 6q32 30 33 73H583c2-21 2-21 5-31l1-3c3-13 6-23 17-31q25-18 40-46 7 2 13 6l2 1 19 12 16 8 1-1q-23-18-49-31v-2c0-18 0-34-13-49q-13-15-33-21-5 0-8-5l-1-4-1-5-1-2q-6-16-19-30l-2-2q-11-13-26-21l-2-1a79 79 0 0 0-59-8q-23 8-42 25c0-10 15-22 22-29l1-1 3-3 19-17 2-2 5-4 4-3 1-1 4-3q5-3 9-3" />
    <path fill="white"
        d="m242 213 10 4 3 2 7 5a359 359 0 0 0 97 50q45 18 91 24l6 1 9 2h44q5 0 9 2l5 1 3 1 4 1a605 605 0 0 1 127 45l2 1a329 329 0 0 1 124 115l2 3q5 7 6 15l-2 1q-20 13-30 32l-1 2-2 4h-2l-3-5a97 97 0 0 0-58-44h-3l-3-1-5-1q-8-2-15-8l-11-7-2-1-6-5-2-1-36-23-2-1-36-18-2-1q-20-10-42-15l-3-1-8-2-4-1-9-2-4-1q-16-3-34-3h-3q-8-1-16 3-8 2-15-2l-3-1q-49-20-93-50l-2-1a228 228 0 0 1-57-54c-13-15-35-44-35-65" />
    <path fill="white"
        d="M502 914q32 0 57 23l1 1c21 19 34 47 36 75q1 41-26 71l-22 25-1 2q-23 29-35 62l-2 4H373v-13l1-4a638 638 0 0 1 8-84q5-42 22-79l1-2a186 186 0 0 1 36-52c11-12 29-26 46-28z" />
    <path fill="white"
        d="m358 164 19 8q39 19 81 33l4 1 43 13 13 4 3 1 8 2 8 2h2l12 4 43 10 4 1 35 10h2q16 5 30 13l2 1v2l-3 2v5l19 7 32 11 5 2 12 5 4 2 38 20 2 2q6 3 6 7v7c0 17 10 30 21 43l2 3 15 15 2 4-7 1-3 1-25 2h-2q-17 1-33-3h-2q-16-5-27-15l-10-9-3-1q-16-14-36-25l-2-1q-30-18-64-30l-4-2q-42-14-85-24v-2c0-8 0-8-3-14l-2-2-2-2-2-2-13-9-2-1-22-11q-52-23-92-62l-3-2q-12-12-20-27" />
    <path fill="white"
        d="M569 557h2l3 5 2 5q4 6 6 13c3 8 13 12 20 17q21 14 38 32l11 10 16 17q24 28 23 64l-2 24-1 2-4 22q-6 30-5 59v3q-2 28 6 54l1 3q14 48 58 72 30 18 43 51l1 6-10-8c-22-18-50-29-75-41-55-26-55-26-73-45l-5-4-6-6v-15q2-20-7-38l-1-2a76 76 0 0 0-52-36l7-13 11-17 1-2 4-9 2-4 1-3 5-3q17 2 30 14 20 21 24 49 1-27-16-48-7-7-15-12l-3-2-11-5h-3l-5-2 5-17q6-15 9-31 17 0 29 12l2 2q12 11 16 26l1 3 3 7q1-21-14-37-14-15-34-19l1-19q3-16 3-32c12-1 24 7 33 15l5 5 2 2q10 13 16 28 0-19-14-33a74 74 0 0 0-42-23v-2l-5-33-1-2-3-14q-8 3-15 9-5 4-11 3l-1-2q-7-17-17-30-3-4-2-8l5-7 1-1 4-5 2-2z" />
    <path fill="none"
        d="m599 608 2 10v2q4 21 4 40v2q0 67-32 124l-1 2q-10 18-23 34l-1 2q-16 20-37 36l-6 5-13 11-2 1-6 3-2-11-1-4-1-3v-3q-2-12-2-25v-18l3-39 1-3q6-35 21-65l1-2q15-32 39-59l1-2 18-18 3-2c7-7 7-7 10-7h5q8-1 14-9z" />
    <path fill="white"
        d="m545 452 2 1 19 7 3 1q37 16 69 40l-3 6-2 3-1 3c-5 10-3 25 1 36q12 34 44 48l6 3q11 4 15 14 6 24 8 47 1 13 7 25l2 3q6 9 15 15l2 2 23 15 27 19v1h-2q-16 3-26 16l-6 12q-22-3-36-21a74 74 0 0 1-19-41c-4-29-15-48-36-68l-8-8-9-9-6-6q-11-11-26-21l-2-1-8-6q-12-7-16-20l-5-11-2-2-11-18-2-3-21-25-11-10-2-2a369 369 0 0 0-46-33q0-7 5-12c17-10 40-4 58 0" />
    <path fill="white"
        d="m387 460 12 6 1 1 17 13-9 16q-27 50-36 105v2q-4 22-3 45v3q0 27 4 53l1 4c12 66 41 131 84 183l2 2 2 2 1 4-4 5-2 2-2 2-13 15-9-7-2-2-12-15-4-6c-40-56-70-123-79-192l-1-9q-3-20-2-41v-26l1-4v-4c4-55 22-111 53-157" />
    <path fill="none"
        d="M548 526c8 4 14 17 19 25l-6 8-1 2-4 4-5 11q-3 7-10 11l-4 4-2 2a174 174 0 0 0-25 28c-35 39-58 92-68 143l-1 4q-7 43-3 85l-9-13-1-3-19-34-1-11v-2q4-37 13-73l1-3q18-73 62-136l2-4c4-5 4-5 8-6h2q4-2 7-6c8-11 31-36 45-36" />
    <path fill="white"
        d="M559 186c34 8 68 26 100 40l33 15a614 614 0 0 1 151 88l5 4 17 18q12 13 21 28l1 2 16 27 1 2 3 5-1 2-1-1-6-7-2-2-18-17-9-7q-23-19-50-30l-10-8q-26-22-57-39l-2-1-7-4-2-1-12-5-7-3-18-7-6-2-3-1-26-8v-2l3-2-1-5c-11-10-30-15-45-19h-3l-7-2q-7-1-11-5l-3-6-9-10-2-2-5-6-2-2-26-25z" />
    <path fill="none"
        d="M455 453c13 5 24 15 35 22l6 5 3 2 2 1 3 5-2 1c-26 20-26 20-44 47v2q-3 10-10 16-12 16-22 34l-1 2q-30 54-46 114h-1q-4-27-4-55v-3a312 312 0 0 1 43-157c4-7 4-7 9-8l3-1 5-5 3-3 2-3z" />
    <path fill="white"
        d="M552 584c8 6 16 19 18 29l-5 7-3 2-2 2a222 222 0 0 0-36 40c-26 34-42 77-49 119l-1 3-1 34v3c0 29 0 29 6 56v6l-7 7h-2v2q-4 0-6-4l-8-9-4-5c-10-11-10-26-10-40v-2a316 316 0 0 1 98-239l2-2z" />
    <path fill="white"
        d="M598 994q24 5 38 24 11 20 7 43c-5 19-24 35-39 47q-12 9-17 23l-1 4q-6 20-8 42h-61q2-12 8-22l1-2q7-15 17-29l2-3a291 291 0 0 1 33-40l3-3q20-25 19-58v-4q1-11-2-22" />
    <path fill="white"
        d="m357 800 6 10 1 3 2 3 3 7 1 3 4 7c8 13 7 28 7 43v18l1 39v2q1 33 9 65 1 14-3 27-8 28-13 56-7-14-9-29v-2q-6-21-9-43v-2l-6-45v-4a646 646 0 0 1-2-78c1-60 1-60 8-80" />
    <path fill="white"
        d="m459 548 7 5q8 9 18 14l-7 12-20 32-1 2q-28 52-41 108l-1 3-7 35v4l-3 23h-2l-17-49-1-4q-4-16 1-32l1-4q21-82 73-149" />
    <path fill="none"
        d="m386 859 7 8 1 3 2 2q15 27 36 50l2 2 2 2 1 2-9 17-2 3-10 18-7 11-1 2-11 22-3-7v-2l-1-3v-3q-8-47-7-95z" />
    <path fill="white"
        d="M556 825q23 5 39 21l2 2q18 19 17 44l-1 14-12-10c-20-18-48-29-75-30h-3l-9-1 13-12c12-11 12-11 23-24z" />
    <path fill="white"
        d="M694 733h2l3 5c10 15 23 30 42 35l5 1-1 5-1 2-3 10-5 20-1 4-2 9h-10c-11-1-20-10-27-18l-8-10-2-2q-2-4-1-10v-2l3-13 2-12z" />
    <path fill="white"
        d="m511 490 10 8 2 2 6 5 2 2 5 5 2 1q5 3 6 8l-3 2q-26 15-45 39-2 3-5 2c-11-2-21-12-27-21v-9l6-7 1-2 4-3 5-6 9-9 7-7 5-4 2-2 2-2 2-1z" />
    <path fill="white"
        d="M683 799h2l5 7q12 17 31 23l11 1v52q-10 3-19-2-12-5-19-14l-6-4-5-5-1-35v-8z" />
    <path fill="white"
        d="m685 866 7 5c7 8 18 16 29 16h13v2l3 11 1 3q3 16 10 30l2 4 1 3 7 14 1 3 2 3 1 2 1 4-9-5-10-7q-37-21-52-61l-1-2-3-12-1-2z" />
    <path fill="white"
        d="M404 428q7 2 13 6l32 14q1 5-2 6l-3 3q-7 6-13 14l-2 2-1 2q-4 2-8 1l-5-4q-9-8-19-13l-7-5q-1-4 2-8l2-3 2-3z" />
    <path fill="none"
        d="M836 552q10 0 19 3h3c30 6 30 6 40 15l3 2c4 5 2 13 2 19v11l1 5v6q-4 0-6-3-4-4-10-5c-20-6-34-23-44-41l-1-5-2-1h-2l-3-1-4-4zm13 8a72 72 0 0 0 48 42c3-12 3-12 1-25-8-11-26-14-39-17z" />
    <path fill="none"
        d="M832 517q13 0 25 3l2 1q25 4 45 21l2 2q10 9 15 22v7q-4-1-6-5l-1-4q-8-15-22-24l-3-2q-12-7-26-10l-4-2-13-3c-11-1-11-1-15-3z" />
</svg>